<?xml version="1.0" encoding="UTF-8"?><svg id="Layer_2" xmlns="http://www.w3.org/2000/svg" xmlns:xlink="http://www.w3.org/1999/xlink" viewBox="0 0 20 10.68"><defs><style>.cls-1{fill:url(#linear-gradient-2);}.cls-2{fill:url(#linear-gradient);}</style><linearGradient id="linear-gradient" x1="-255.99" y1="295.29" x2="-255.73" y2="295.29" gradientTransform="translate(5296.82 2028.22) scale(20.66 -6.85)" gradientUnits="userSpaceOnUse"><stop offset="0" stop-color="#521af1"/><stop offset=".26" stop-color="#3c55e9"/><stop offset="1" stop-color="#00fcd5"/></linearGradient><linearGradient id="linear-gradient-2" x1="-264.42" y1="346.39" x2="-264.16" y2="346.39" gradientTransform="translate(19818.09 13865.52) scale(74.95 -40.01)" xlink:href="#linear-gradient"/></defs><g id="Layer_1-2"><g id="Group_1"><path id="Path_6021" class="cls-2" d="M7.33,5.32c.13,.15,.37,.17,.52,.03,.01-.01,.03-.02,.04-.04,.53-.61,1.3-.96,2.11-.96,.81,0,1.58,.35,2.11,.96,.13,.15,.37,.17,.52,.04,.01-.01,.03-.02,.04-.04h0c.12-.14,.12-.34,0-.48-.67-.78-1.64-1.22-2.67-1.22-1.02,0-2,.44-2.67,1.22-.12,.14-.12,.35,0,.48h0Z"/><path id="Path_6022" class="cls-1" d="M19.98,6.73V.4c0-.22-.18-.4-.4-.4s-.4,.18-.4,.4V3.85l-.02,.89c-.69-.83-1.71-1.31-2.79-1.31-2,0-3.62,1.62-3.62,3.62,0,.12,0,.24,.02,.36h0c-.1,.99-.72,1.86-1.62,2.27-.22,.1-.44,.17-.68,.21-.16,.03-.32,.04-.48,.04-.16,0-.32-.01-.48-.04-.23-.04-.46-.11-.68-.21-.91-.41-1.53-1.28-1.62-2.27,.01-.12,.02-.24,.02-.36,0-2-1.62-3.62-3.62-3.62-2,0-3.62,1.62-3.62,3.62H0c0,2,1.62,3.62,3.62,3.62h0c1.35,0,2.6-.76,3.22-1.96,.29,.59,.75,1.09,1.31,1.44h0c.55,.34,1.19,.52,1.85,.52,.35,0,.69-.05,1.03-.15,.22-.07,.43-.15,.63-.26,.65-.35,1.18-.89,1.5-1.55,.62,1.2,1.86,1.96,3.22,1.96,2,0,3.62-1.62,3.62-3.62,0-.11,0-.22-.02-.33Zm-13.71,1.28c-.07,.23-.17,.44-.3,.64-.52,.82-1.42,1.3-2.39,1.29-1.51-.02-2.73-1.24-2.75-2.75-.01-1.1,.62-2.11,1.62-2.57,.21-.1,.44-.17,.67-.21,.15-.03,.3-.04,.45-.04,1.54-.02,2.81,1.21,2.84,2.75,0,.31-.04,.61-.13,.9h0Zm10.12,1.93c-.72,0-1.41-.27-1.94-.77-.16-.15-.3-.32-.42-.5-.29-.45-.45-.98-.45-1.52,0-1.51,1.21-2.75,2.73-2.79,.43-.01,.86,.08,1.26,.27,.2,.09,.38,.21,.55,.35,.66,.53,1.05,1.34,1.04,2.19-.02,1.52-1.25,2.76-2.77,2.77h0Z"/></g></g></svg>