<svg xmlns="http://www.w3.org/2000/svg" xmlns:xlink="http://www.w3.org/1999/xlink" width="74.95" height="40.016" viewBox="0 0 74.95 40.016">
  <defs>
    <linearGradient id="linear-gradient" y1="0.5" x2="1" y2="0.5" gradientUnits="objectBoundingBox">
      <stop offset="0.006" stop-color="#f97d02"/>
      <stop offset="0.076" stop-color="#f97303"/>
      <stop offset="0.19" stop-color="#fc5b09"/>
      <stop offset="0.208" stop-color="#fd570a"/>
      <stop offset="0.457" stop-color="#bb3845"/>
      <stop offset="0.713" stop-color="#7d1c7b"/>
      <stop offset="0.901" stop-color="#570a9d"/>
      <stop offset="1" stop-color="#4904ab"/>
    </linearGradient>
  </defs>
  <g id="Group_1" data-name="Group 1" transform="translate(-1010.5 454)">
    <path id="Path_6021" data-name="Path 6021" d="M1245.9-330.12a1.386,1.386,0,0,0,2.092-.007,10.427,10.427,0,0,1,7.893-3.6,10.425,10.425,0,0,1,7.893,3.6,1.386,1.386,0,0,0,2.092.007h0a1.381,1.381,0,0,0,.013-1.81,13.186,13.186,0,0,0-10-4.57,13.187,13.187,0,0,0-10,4.57,1.381,1.381,0,0,0,.013,1.81Z" transform="translate(-207.913 -103.93)" fill="url(#linear-gradient)"/>
    <path id="Path_6022" data-name="Path 6022" d="M1085.392-428.792V-452.5a1.5,1.5,0,0,0-1.5-1.5,1.5,1.5,0,0,0-1.5,1.5v12.94l-.058,3.35a13.54,13.54,0,0,0-10.452-4.915,13.57,13.57,0,0,0-13.57,13.57,13.525,13.525,0,0,0,.068,1.356,0,0,0,0,0,0,0,10.46,10.46,0,0,1-6.083,8.507,10.367,10.367,0,0,1-2.538.782,10.559,10.559,0,0,1-1.783.151,10.534,10.534,0,0,1-1.782-.151,10.322,10.322,0,0,1-2.538-.782,10.46,10.46,0,0,1-6.084-8.509,13.489,13.489,0,0,0,.068-1.356,13.57,13.57,0,0,0-13.57-13.57,13.57,13.57,0,0,0-13.57,13.57,13.57,13.57,0,0,0,13.57,13.57,13.569,13.569,0,0,0,12.06-7.344,13.251,13.251,0,0,0,4.927,5.39h0a13.146,13.146,0,0,0,6.917,1.953,13.194,13.194,0,0,0,3.842-.568,13.014,13.014,0,0,0,2.366-.978,13.259,13.259,0,0,0,5.637-5.8,13.569,13.569,0,0,0,12.06,7.344,13.57,13.57,0,0,0,13.569-13.57C1085.45-427.971,1085.429-428.384,1085.392-428.792Zm-51.377,4.8a10.335,10.335,0,0,1-1.127,2.4,10.439,10.439,0,0,1-8.951,4.839,10.487,10.487,0,0,1-10.318-10.315,10.449,10.449,0,0,1,6.066-9.623,10.32,10.32,0,0,1,2.523-.8,10.477,10.477,0,0,1,1.671-.164,10.491,10.491,0,0,1,10.64,10.292A10.412,10.412,0,0,1,1034.015-423.991Zm37.926,7.235a10.416,10.416,0,0,1-7.252-2.869,10.444,10.444,0,0,1-1.572-1.888,10.4,10.4,0,0,1-1.687-5.69,10.484,10.484,0,0,1,10.219-10.454,10.4,10.4,0,0,1,4.707,1,10.4,10.4,0,0,1,2.079,1.306,10.433,10.433,0,0,1,3.9,8.217A10.49,10.49,0,0,1,1071.941-416.756Z" fill="url(#linear-gradient)"/>
  </g>
</svg>
