<svg xmlns="http://www.w3.org/2000/svg" viewBox="0 0 790.862 700"><defs><style>.cls-1,.cls-14,.cls-15,.cls-25,.cls-26,.cls-3,.cls-4{fill:none;}.cls-1,.cls-26,.cls-3{stroke:#fff;}.cls-1,.cls-14,.cls-15,.cls-25,.cls-26,.cls-27,.cls-3,.cls-4{stroke-miterlimit:10;}.cls-1,.cls-14,.cls-15,.cls-25,.cls-27{stroke-width:1.744px;}.cls-2{fill:#f6890a;}.cls-3{stroke-width:0.874px;}.cls-4{stroke:#f6890a;}.cls-5{fill:#0d1247;}.cls-6{fill:#1d2b68;}.cls-27,.cls-7{fill:#1f296b;}.cls-8{fill:#8937eb;}.cls-9{fill:#fff;}.cls-10{fill:#d3adff;}.cls-11{fill:#8836ea;}.cls-12{fill:#823dde;}.cls-13{fill:#6d60c6;}.cls-14{stroke:#d2afff;}.cls-15{stroke:#8937eb;}.cls-16{fill:#58c6a1;}.cls-17{fill:#fcb9a9;}.cls-18{fill:#26775c;}.cls-19{fill:#2fae97;}.cls-20{fill:#eaa698;}.cls-21{fill:#dd7105;}.cls-22{fill:#41507b;}.cls-23{fill:#4f6a9c;}.cls-24{fill:#6e61c7;}.cls-25{stroke:#d2acff;}.cls-26{stroke-width:1.101px;}.cls-27{stroke:#8836ea;}</style></defs><title>desktop</title><g id="Layer_2" data-name="Layer 2"><g id="Layer_1-2" data-name="Layer 1"><line class="cls-1" x1="89.772" y1="325.039" x2="120.292" y2="500.311"/><circle class="cls-2" cx="121.164" cy="501.183" r="3.488"/><circle class="cls-3" cx="120.292" cy="500.311" r="6.104"/><path class="cls-4" d="M50.846,243.683c1.744,2.126,3.19,3.832,4.574,5.587,3.882,4.921,7.377,5.5,12.53,1.89a3.7,3.7,0,0,0,1.257-2.382,42.54,42.54,0,0,0,.076-5.041c0-6.642.031-6.488,6.449-7.806,2.619-.538,3.989-.056,4.548,2.591a25.231,25.231,0,0,0,1.111,3.171c2.428,6.789,3.792,7.663,10.987,6.342a4.594,4.594,0,0,0,2.614-2.606c1.345-3.207,2.374-6.547,3.606-10.062l9.888,1.233c0,3.6.1,7.057-.034,10.508-.084,2.243.581,3.516,2.848,4.385,7.115,2.731,7.073,2.836,11.864-3.315,1.282-1.646,2.576-3.283,4.019-5.121,1.47.708,2.83,1.344,4.172,2.015,1.375.688,2.732,1.411,4.588,2.373-1.047,3.589-1.934,7.215-3.189,10.708-.73,2.033-.548,3.273,1.271,4.608,7.011,5.147,4.279,5.538,11.933.671,1.883-1.2,3.755-2.41,5.816-3.735l6.733,7.151c-1.89,2.606-3.6,5.707-6,8.106-3.834,3.82-.125,6.093,1.144,9.049,1.449,3.375,3.783,2.513,6.264,1.883,3.1-.788,6.221-1.5,9.587-2.309,1.4,2.945,2.707,5.679,4.177,8.761-3.378,2.344-6.476,4.724-9.8,6.723-2.257,1.356-2.282,3.063-1.383,4.953,1.124,2.363-.331,6.355,4.186,6.669,3.071.213,6.118.776,9.19.96,3.989.239,3.033,3.275,3.309,5.578.259,2.159,1,4.536-2.416,5.164-2.33.428-4.54,1.538-6.872,1.906-3.907.618-5.054,2.691-5.294,6.561-.235,3.773.771,5.823,4.366,6.665a7.407,7.407,0,0,1,1.156.5c8.247,3.529,8.247,3.529,5.48,12.333-4.028,0-8.071.218-12.081-.054-4.856-.329-4.23,4.114-5.764,6.5-.564.877.3,3.336,1.256,4.4,2.605,2.891,5.609,5.421,8.39,8.033-4.651,8.754-4.651,8.754-13.314,5.026-6-2.58-7.5-2.2-11.119,3.481a4.526,4.526,0,0,0,.1,3.691c1.671,3.535,3.639,6.929,5.69,10.743l-7.726,6.21c-3.221-2.817-6.509-5.4-9.435-8.351-2.026-2.042-3.641-.931-5.116.211-1.852,1.434-5.7,1.045-4.865,5.15.586,2.878.682,5.865,1.393,8.7.677,2.7.045,4.22-2.695,4.949-1.882.5-3.692,1.272-6.056,2.107-1.918-3.356-4.066-6.595-5.677-10.083-1.577-3.414-4.049-2.541-6.7-2.228-2.708.32-4.932.809-5.091,4.207A38.943,38.943,0,0,1,95.894,408c-1.125,6.269-3.458,7.839-9.638,6.2a3.551,3.551,0,0,1-1.839-2.23c-.648-2.134-.987-4.361-1.457-6.549-1.264-5.892-2.646-7.121-8.576-6.9a4.753,4.753,0,0,0-3.114,2.092c-1.69,2.566-2.845,5.5-4.642,7.973a5.135,5.135,0,0,1-3.875,1.491,10.113,10.113,0,0,1-4.72-1.6,4.024,4.024,0,0,1-1.755-2.955,80.96,80.96,0,0,1,1.292-9.571c.785-4.377-3.243-4.355-5.439-5.714-1.053-.651-3.445-.28-4.563.539-3.02,2.212-5.681,4.912-8.733,7.642l-7.8-6.261c1.778-3.574,3.343-6.991,5.147-10.276,2.261-4.115-1.832-5.343-3.5-7.46-.724-.92-3-.794-4.578-.794a7.821,7.821,0,0,0-2.705,1.089c-8.462,3.7-8.462,3.7-12.973-5.387a91.757,91.757,0,0,1,7.514-7.074c3.478-2.646,1.14-5.111.358-7.759-.814-2.761-2.441-3.714-5.318-3.371-3.312.4-6.675.36-10.32.525-.876-3.274-1.693-6.33-2.559-9.565,2.946-1.389,5.477-3.02,8.247-3.791,4.451-1.238,4.066-4.29,4.085-7.807.021-3.888-2.4-4.526-5.206-5.233-2.829-.712-5.628-1.546-8.7-2.4.266-3.417.513-6.58.784-10.058,3.784-.493,7.351-1.117,10.945-1.385,4.327-.322,3.045-4.007,3.973-6.305.806-2,1.227-4.154-1.584-5.208a7.9,7.9,0,0,1-1.425-.886c-7.909-5.12-7.908-5.121-3.386-14.224,3.376.707,6.972,1.2,10.39,2.258,2.84.881,3.94-.717,4.83-2.647,1.046-2.268,4.52-3.962,1.779-7.265-2.231-2.687-4.265-5.54-6.608-8.61l6.584-7.71a89.345,89.345,0,0,1,8.424,5.326c2.876,2.288,4.8.879,6.925-.966,2.047-1.776,4.875-2.94,3.148-6.68a96.575,96.575,0,0,1-3.267-9.519Zm53.964,81.176a14.718,14.718,0,1,0-29.435-.184c.009,8.486,6.415,15.134,14.641,15.192A14.811,14.811,0,0,0,104.81,324.859Zm26.646,30.432c-6.241-3.586-11.9-6.918-17.642-10.1-2.511-1.391-17.007,6.607-17.1,9.576-.213,6.953-.068,13.917-.068,21.3C111.3,373.753,122.51,367,131.456,355.291Zm-82.544.053c9.014,11.583,19.985,18.573,34.552,20.47V353.661q-6.324-4.038-12.648-8.073c-.118-.075-.243-.193-.367-.2-1.4-.036-3.081-.569-4.162.01C60.631,348.433,55.127,351.747,48.912,355.344Zm-6.006-10.993c6.256-3.652,12.059-6.973,17.789-10.417,2.369-1.423,3.1-17.7.672-19.22-5.847-3.672-11.925-6.975-18.295-10.648C37.9,317.771,37.266,330.718,42.906,344.351Zm94.032-40.181c-6.17,3.552-11.909,6.742-17.521,10.141-2.457,1.487-2.761,17.787-.306,19.3,5.914,3.641,12,7.007,18.388,10.7C142.839,330.656,142.777,317.707,136.938,304.17ZM96.6,273.948c0,5.567.425,10.618-.112,15.564-.6,5.564,1.822,8.12,6.357,11.039,6.08,3.913,10.858,3.893,16.423-.349,3.455-2.634,7.467-4.536,11.445-6.894C121.581,282.462,110.932,275.71,96.6,273.948Zm-12.92.985c-11.185-.935-28.9,9.3-33.045,18.974,5.628,3.3,11.27,6.644,16.973,9.885a3.41,3.41,0,0,0,2.71.376c4.193-2.24,8.3-4.65,12.375-7.093a2.352,2.352,0,0,0,.945-1.715C83.7,288.536,83.679,281.71,83.679,274.933Z"/><path class="cls-4" d="M211.3,485.136a52.41,52.41,0,0,1,.515,7.6,4.244,4.244,0,0,1-2.185,2.988,72.256,72.256,0,0,1-7.51,2.241c-2.378.72-5.437.563-5.274,4.466.157,3.784-1.178,7.93,4.272,9.544,3.286.972,6.317,2.807,9.2,4.134.148.574.242.729.212.854-2.655,10.736-.41,9.179-11.287,8.588-6.193-.336-9.039,1.591-9.959,7.777a4.627,4.627,0,0,0,1.514,3.213c2.869,2.859,5.918,5.539,9.1,8.475-1.883,3.049-3.619,5.86-5.459,8.842-4.015-1.631-7.876-2.926-11.482-4.731-4.638-2.321-5.551,2.2-8,3.922-2.27,1.591-1.567,3.32-.438,5.266,1.965,3.387,3.765,6.869,5.862,10.731l-8.154,6.543c-3.364-2.963-6.394-5.9-9.744-8.422-1.07-.8-3.439-1.173-4.427-.531-2.188,1.423-6.219,1.247-5.842,5.389a44.8,44.8,0,0,0,1.216,8.626c1.083,3.654-.109,5.455-3.6,6.322-1.806.449-3.546,1.166-5.587,1.853-2.009-3.71-4.128-7.188-5.82-10.862-1.938-4.21-5.18-1.894-7.931-1.887-2.673.008-4.137,1.307-4.434,4.208-.368,3.6-1.2,7.152-1.936,11.283a50.975,50.975,0,0,1-7.8-.122,4.745,4.745,0,0,1-3.03-2.62,39.942,39.942,0,0,1-1.538-6.79c-.907-4.5-5.684-7.762-9.974-6.6-.814.22-1.554,1.209-2.049,2.015-1.063,1.732-1.909,3.6-2.905,5.37-3.546,6.319-1.565,5.83-9.046,3.768-3.3-.912-4.219-2.4-3.432-5.529.458-1.826.374-3.8.92-5.59,1.317-4.322-.441-6.508-4.354-8.315-2.843-1.313-4.63-1.327-6.8.963-2.388,2.519-5.157,4.676-8.064,7.262l-8.508-6.614c1.919-3.615,3.613-7.128,5.616-10.454,1.184-1.965,1.316-3.524-.631-4.836-2.369-1.6-2.949-6.314-7.451-4.248-3.544,1.626-7.14,3.138-10.962,4.809-1.966-2.96-3.8-5.715-5.894-8.874,2.851-2.711,5.562-5.47,8.477-7.993,1.687-1.459,2.464-2.841,1.012-4.788-1.729-2.317-1.038-6.822-5.8-6.415-3.746.321-7.495.607-11.493.928L27.454,516.58c3.235-1.479,6.268-3.149,9.494-4.263,3.375-1.165,3.954-3.35,3.456-6.446-.463-2.873.276-6.14-4.326-6.609-3.259-.333-6.414-1.678-9.426-2.518-.243-.542-.472-.807-.46-1.061.446-9.578.428-9.887,9.921-10.534,4.59-.313,5.355-2.828,6.463-6.372,1.22-3.9-.4-5.686-3.444-7.151a3.39,3.39,0,0,1-.369-.231c-8.053-5.19-8.053-5.19-2.867-14.386,3.543.713,7.264,1.289,10.888,2.237,4.352,1.138,4.359-2.962,6.092-4.864,1.463-1.6,2.464-3.455.4-5.728-2.419-2.666-4.426-5.707-6.776-8.8,2.35-2.616,4.563-5.081,7.053-7.852a97.523,97.523,0,0,0,9.341,5.66c1.3.616,3.785.5,4.772-.364,2.142-1.885,6.545-2.425,5.2-6.936-1.074-3.608-2.232-7.191-3.445-11.082l8.956-5.177c2.513,3.079,5.054,5.867,7.207,8.928,1.984,2.82,4.143,1.409,6.121.521,2.269-1.018,5.929-.5,5.811-4.634-.07-2.473.217-4.976-.067-7.418-.406-3.48,1.236-4.753,4.379-4.882,2.844-.118,6.52-2.611,7.41,2.709a16.35,16.35,0,0,0,.991,2.885c2.5,6.73,4.186,7.741,11.253,6.4A4.822,4.822,0,0,0,124,416.672a10.572,10.572,0,0,0,1.05-2.848c3.18-9.146,3.18-9.146,13.226-6.552,0,3.3.105,6.756-.035,10.2-.1,2.479.55,3.914,3.178,4.8,7.3,2.476,7.252,2.618,12.207-3.632,1.343-1.694,2.707-3.372,4.127-5.139,1.137.458,2.087.769,2.971,1.211,1.942.973,3.852,2.013,6.267,3.284-1.16,3.746-2.14,7.5-3.493,11.125-1.811,4.846,3.051,5.16,4.859,7.52,1.559,2.035,3.335,1.686,5.3.314,3.094-2.157,6.335-4.1,9.7-6.262l7.376,7.009c-2.547,3.4-4.936,6.818-7.558,10.044-3.095,3.807,1.129,5.628,2.086,8.309.78,2.183,2.214,3.061,4.762,2.3,3.733-1.114,7.6-1.792,11.677-2.718l4.337,9.15c-3.424,2.35-6.668,4.748-10.081,6.876-4.136,2.578-1,5.7-.778,8.553.179,2.313,1.159,3.95,4.111,3.959C203.192,484.2,207.09,484.774,211.3,485.136Zm-92.494,30.052a17.025,17.025,0,0,0,17.222-16.626c.15-8.656-7.984-16.869-16.678-16.839-8.915.029-16.874,7.831-16.919,16.584A16.689,16.689,0,0,0,118.808,515.188Zm-.985,52.449c2.724-.389,5.5-.578,8.162-1.208,6.648-1.57,10.007-5.681,8.041-12.029a57.2,57.2,0,0,0-8.821-17.15c-3.774-5.014-10.829-4.446-15.332.419a34.572,34.572,0,0,0-5.511,8.3C97.747,559.537,102.753,567.423,117.823,567.637ZM73.7,509.4l-.03-.367c-2.433.328-4.905.479-7.291,1.015-9.757,2.189-13.029,8.731-8.937,17.9a84.321,84.321,0,0,0,4.253,8.075c4.628,7.923,13.7,8.772,19.364,1.561a52.2,52.2,0,0,0,6.648-11.155c3.949-8.994-.306-15.926-10.1-17A36.15,36.15,0,0,0,73.7,509.4Zm-.027-23.726.034-.42c1.886,0,3.784.137,5.657-.024,9.068-.777,13.741-7.582,9.993-15.9a46.671,46.671,0,0,0-9.826-13.522c-4.486-4.431-10.039-3.91-14.151.982a58.764,58.764,0,0,0-8.146,12.764c-2.98,6.367.213,12.777,7,14.752C67.261,485.192,70.523,485.247,73.676,485.677Zm91.193,2.11.065.373a85.38,85.38,0,0,0,8.946-1.672c7.618-2.242,10.4-7.668,7.591-15.168a59.744,59.744,0,0,0-5.617-11.285c-4.187-6.507-11.328-7.475-16.666-2.059a45.15,45.15,0,0,0-7.46,10.627c-5.944,11.269-1.374,18.776,11.395,19.181C163.7,487.8,164.287,487.787,164.869,487.787Zm-45.427-57.98c-.978.07-2.878.09-4.742.358-9.944,1.431-13.367,7.2-9.322,16.33a78.363,78.363,0,0,0,7.105,12.434c3.619,5.277,9.191,6.244,13.854,2.04a31.941,31.941,0,0,0,7.754-10.282C140.248,436.874,135.444,429.845,119.442,429.807Zm28.379,93.217c.047,7.215,8.011,18.351,14.8,20.738,3.539,1.244,6.947.639,9.167-2.163a77.938,77.938,0,0,0,8.856-13.348c3.363-6.742.182-13.738-7.165-15.173a61.423,61.423,0,0,0-17.281-.6C150.749,512.992,147.784,517.453,147.821,523.024Z"/><rect class="cls-5" x="310.416" y="584.896" width="233.697" height="95.92"/><path class="cls-6" d="M268.411,672.1H577.4a10.316,10.316,0,0,1,10.316,10.316V700a0,0,0,0,1,0,0H258.1a0,0,0,0,1,0,0V682.412A10.316,10.316,0,0,1,268.411,672.1Z"/><rect class="cls-7" x="122.882" y="211.243" width="600.044" height="420.741" rx="12"/><rect class="cls-8" x="137.084" y="229.883" width="571.64" height="383.46"/><rect class="cls-9" x="204.877" y="248.303" width="436.001" height="345.313" rx="12"/><path class="cls-10" d="M216.163,248.3H629.585A11.293,11.293,0,0,1,640.878,259.6v39.283a0,0,0,0,1,0,0h-436a0,0,0,0,1,0,0v-39.29A11.286,11.286,0,0,1,216.163,248.3Z"/><rect class="cls-11" x="326.957" y="267.487" width="233.697" height="20.928" rx="3.868"/><rect class="cls-9" x="257.197" y="274.463" width="17.44" height="5.232"/><rect class="cls-9" x="231.037" y="274.463" width="17.44" height="3.488" rx="0.645" transform="translate(213.983 641.048) rotate(-135)"/><rect class="cls-9" x="231.037" y="274.463" width="17.44" height="3.488" rx="0.645" transform="translate(604.598 301.981) rotate(135)"/><circle class="cls-1" cx="289.461" cy="277.079" r="5.232"/><rect class="cls-12" x="592.046" y="265.743" width="21.255" height="4.251" rx="0.786"/><rect class="cls-12" x="592.046" y="275.662" width="21.255" height="4.251" rx="0.786"/><rect class="cls-12" x="592.046" y="284.164" width="21.255" height="4.251" rx="0.786"/><rect class="cls-13" x="453.378" y="305.596" width="184.314" height="81.579" rx="6.574" transform="translate(-81.24 189.08) rotate(-18.325)"/><rect class="cls-14" x="449.909" y="331.143" width="183.121" height="90.688"/><rect class="cls-15" x="454.269" y="433.167" width="136.032" height="19.184" rx="3.546"/><rect class="cls-15" x="455.141" y="472.407" width="136.032" height="19.184" rx="3.546"/><rect class="cls-15" x="455.141" y="512.519" width="136.032" height="19.184" rx="3.546"/><rect class="cls-15" x="455.141" y="552.632" width="136.032" height="19.184" rx="3.546"/><circle class="cls-15" cx="618.86" cy="442.541" r="10.464"/><circle class="cls-16" cx="618.86" cy="442.541" r="6.54"/><circle class="cls-16" cx="510.731" cy="6.54" r="6.54"/><circle class="cls-16" cx="618.86" cy="482.653" r="6.54"/><circle class="cls-16" cx="618.86" cy="522.765" r="6.54"/><circle class="cls-15" cx="619.078" cy="482.871" r="10.464"/><circle class="cls-15" cx="619.078" cy="522.983" r="10.464"/><circle class="cls-15" cx="619.078" cy="563.096" r="10.464"/><polygon class="cls-17" points="157.788 672.096 154.3 682.56 159.532 684.304 163.02 670.352 157.788 672.096"/><polygon class="cls-17" points="187.584 672.633 187.553 683.663 193.068 683.679 192.006 669.337 187.584 672.633"/><polygon class="cls-17" points="183.949 506.415 194.413 506.415 194.413 516.879 190.925 520.367 190.925 530.832 182.6 530.265 182.205 513.391 180.461 513.391 180.461 508.159 183.949 508.159 183.949 506.415"/><polygon class="cls-18" points="192.669 588.384 203.133 588.384 201.389 616.288 192.669 673.84 185.693 673.84 185.693 588.384 192.669 588.384"/><polygon class="cls-19" points="170.869 587.512 170.869 625.88 155.172 672.968 163.893 672.968 184.821 627.624 191.797 587.512 170.869 587.512"/><polygon class="cls-2" points="182.205 525.6 171.741 525.6 169.997 588.384 203.133 588.384 203.133 525.6 192.669 525.6 187.437 530.832 182.205 525.6"/><path class="cls-20" d="M185.693,548.272s12.208,12.208,40.112,10.464l27.9-1.744s5.232-3.488,0-3.488-38.368,3.488-62.784-10.464Z"/><path class="cls-17" d="M180.461,543.04s12.208,12.208,40.112,10.464l27.9-1.744s5.232-3.488,0-3.488-38.368,3.488-62.784-10.464Z"/><polygon class="cls-21" points="178.529 525.6 169.997 530.832 180.461 546.528 189.181 537.808 178.529 525.6"/><polygon class="cls-22" points="180.459 508.159 180.461 499.439 196.157 499.439 196.157 508.159 194.413 508.159 194.413 506.415 183.949 506.415 183.949 508.159 180.459 508.159"/><path class="cls-23" d="M170.753,690.486c-.817,1.744-5.722,1.172-10.956-1.279s-6.314-6.647-5.5-8.391,3.222-.378,8.456,2.073S171.57,688.741,170.753,690.486Z"/><path class="cls-23" d="M204.739,683.752c.195,1.917-4.308,3.944-10.058,4.529s-8.83-2.461-9.025-4.378,2.57-1.978,8.32-2.563S204.544,681.836,204.739,683.752Z"/><circle class="cls-16" cx="660.716" cy="550.67" r="6.54"/><path class="cls-7" d="M668.86,541.761c1.951-2,4.465-2.863,6.9-3.671"/><path class="cls-7" d="M670.984,543.423l.829-.463a13.086,13.086,0,0,1,3.945-1.664"/><path class="cls-7" d="M672.728,545.167l1.768-.98a28.06,28.06,0,0,1,8.414-3.524"/><rect class="cls-24" x="243.797" y="325.684" width="165.586" height="245.438" rx="12" transform="translate(147.437 -76.602) rotate(17.226)"/><rect class="cls-25" x="242.373" y="329.399" width="165.68" height="242.417"/><circle class="cls-4" cx="427.376" cy="125.514" r="33.136"/><circle class="cls-4" cx="427.376" cy="125.514" r="20.928"/><polyline class="cls-26" points="437.353 156.908 475.59 326.582 458.424 376.487"/><polyline class="cls-26" points="460.373 125.35 593.79 288.415 634.126 320.753"/><line class="cls-3" x1="90.644" y1="325.911" x2="394.24" y2="133.188"/><circle class="cls-2" cx="89.516" cy="324.627" r="3.9"/><path class="cls-27" d="M496.125,19.838v83.893c0,20.127,12.453,36.443,27.815,36.443H743.816c5.818,0,10.534,6.18,10.534,13.8V517.9c0,7.623-5.344,12.931-10.534,13.8L684.478,541.3l-1.744,15.7c30.831,0,61.287-.151,91.825-5.141,2.242-.366,4.57-.788,6.405-2.127,5.171-3.776,4.666-12.808,4.666-18.485V142.732c0-23.084-14.282-41.8-31.9-41.8H536.609c-5.818,0-10.535-6.179-10.535-13.8V18.966Z"/><rect class="cls-2" x="506.589" y="18.094" width="6.976" height="41.856" transform="translate(471.055 549.1) rotate(-90)"/><rect class="cls-2" x="766.446" y="169.822" width="6.976" height="41.856" transform="translate(579.184 960.685) rotate(-90)"/><rect class="cls-2" x="694.942" y="98.318" width="6.976" height="43.6"/><rect class="cls-2" x="574.606" y="98.318" width="6.976" height="43.6"/><rect class="cls-2" x="766.446" y="305.855" width="6.976" height="41.856" transform="translate(443.151 1096.717) rotate(-90)"/><rect class="cls-2" x="766.446" y="441.887" width="6.976" height="41.856" transform="translate(307.119 1232.75) rotate(-90)"/><rect class="cls-2" x="712.382" y="523.855" width="6.976" height="41.856" transform="translate(1431.74 1089.567) rotate(180)"/><path class="cls-4" d="M498.709,92.83c-3.779,3.244-7.23,6.337-10.833,9.241-1.535,1.237-1.653,2.3-1.418,4.3.853,7.232,4.652,9.825,11.8,10.577,8.234.866,7.044-.7,7.117,8.323.019,2.426,0,4.852,0,7.627-4.613.855-9,1.792-13.424,2.436-2.122.309-2.786,1.326-3.678,3.237-3.247,6.96-.926,11.559,5.222,15.184,1.852,1.091,3.335,2.809,5.178,4.405-2.172,3.774-4.185,7.535-6.511,11.091a3.6,3.6,0,0,1-3.207.832c-3.621-1.067-7.183-2.369-10.686-3.784-1.918-.774-3.256-.45-4.413,1.2a6.464,6.464,0,0,1-1.683,1.915c-5.082,3.058-4.854,7-2.408,11.7,1.327,2.549,1.99,5.444,3.011,8.351-3.865,2.263-7.474,4.533-11.26,6.455-.737.375-2.5-.279-3.207-1.018-2.6-2.74-4.923-5.749-7.44-8.575-.581-.653-1.64-1.512-2.282-1.372a73.827,73.827,0,0,0-9.84,2.763c-.8.3-1.387,1.863-1.615,2.941-.879,4.168-1.572,8.375-2.4,12.938-4.53,0-8.9.09-13.268-.094-.679-.029-1.706-1.219-1.888-2.026-.832-3.687-1.238-7.477-2.2-11.123a5.9,5.9,0,0,0-2.872-2.972c-7.072-3.84-12.245-1.516-16.113,5.111a33.75,33.75,0,0,1-3.706,4.382c-3.81-2.2-7.559-4.2-11.1-6.525a3.623,3.623,0,0,1-.868-3.23c1.032-3.5,2.6-6.856,3.565-10.376a5.871,5.871,0,0,0-.947-4.025c-4.3-7.03-9.916-6.991-16.847-3.69-5.568,2.652-4.5,2.859-7.985-2.855-1.524-2.5-2.874-5.1-4.549-8.088,3.308-2.781,6.553-5.677,9.986-8.332,1.836-1.42,1.736-2.832,1.564-4.987-.625-7.845-5.175-10.64-12.359-10.837a37.067,37.067,0,0,1-5.8-1.082V118.066c4.353-.789,8.625-1.67,12.933-2.3,2.131-.311,2.752-1.46,3.623-3.32,3.272-6.988,1.315-11.848-5.136-15.536-1.754-1-3.153-2.623-4.775-4.01.621-1.205,1.072-2.193,1.62-3.124,1.854-3.147,3.742-6.274,5.815-9.741,4.408,1.581,8.685,3.28,13.08,4.582a5.8,5.8,0,0,0,4.035-.894c6.622-3.98,6.907-9.174,3.66-15.848-2.958-6.08-2.452-6.328,3.536-9.781,2.211-1.274,4.426-2.541,6.966-4,3.053,3.625,5.989,7.343,9.219,10.786a5.7,5.7,0,0,0,3.921,1.269c7.516-.183,10.343-4.371,10.92-11.663.563-7.118,1.158-7.071,8.316-7.071,7.81,0,7.81,0,9.12,7.717,1.658,9.76,1.649,9.821,11.214,11.341a4.444,4.444,0,0,0,3.22-1.529c3.12-3.425,6.05-7.024,9.285-10.836,2.127,1.217,4.212,2.405,6.291,3.6,2.1,1.21,4.2,2.43,6.585,3.81-1.635,4.574-3.158,9.049-4.846,13.46-.706,1.845-.112,2.874,1.02,4.458,4.307,6.027,9.059,6.071,15.472,3.185,7.273-3.272,5.912-4.313,10.585,3.861C496.178,88.494,497.35,90.487,498.709,92.83Zm-46.72,32.6a24.719,24.719,0,0,0-49.437.151,24.719,24.719,0,1,0,49.437-.151Z"/></g></g></svg>