<svg xmlns="http://www.w3.org/2000/svg" xmlns:xlink="http://www.w3.org/1999/xlink" viewBox="0 0 619.143 678.571"><defs><style>.cls-1,.cls-15,.cls-17,.cls-8,.cls-9{fill:#ff8c3d;}.cls-1,.cls-12,.cls-15,.cls-17,.cls-19,.cls-2,.cls-22,.cls-3,.cls-8{stroke:#000;}.cls-1,.cls-12,.cls-15,.cls-16,.cls-17,.cls-19,.cls-2,.cls-22,.cls-24,.cls-3,.cls-31,.cls-4,.cls-5,.cls-8{stroke-miterlimit:10;}.cls-1,.cls-12,.cls-24,.cls-4{stroke-width:6.143px;}.cls-13,.cls-2,.cls-3,.cls-4{fill:#0090cf;}.cls-17,.cls-19,.cls-2{stroke-width:1.035px;}.cls-22,.cls-3{stroke-width:0.553px;}.cls-16,.cls-24,.cls-4{stroke:#ff8c3d;}.cls-28,.cls-5{fill:#288976;}.cls-31,.cls-5{stroke:#0071bc;stroke-width:6px;}.cls-6{fill:#4904ab;}.cls-7{fill:#3fa9f5;}.cls-10{clip-path:url(#clip-path);}.cls-11{fill:#b55804;}.cls-12,.cls-19,.cls-22,.cls-24,.cls-31{fill:none;}.cls-14{clip-path:url(#clip-path-2);}.cls-15{stroke-width:5px;}.cls-18{opacity:0.1;}.cls-20{clip-path:url(#clip-path-3);}.cls-21{fill:#0082af;}.cls-23{clip-path:url(#clip-path-4);}.cls-25{clip-path:url(#clip-path-5);}.cls-26{clip-path:url(#clip-path-6);}.cls-27{clip-path:url(#clip-path-7);}.cls-29{clip-path:url(#clip-path-8);}.cls-30{fill:#31ae98;}.cls-32{clip-path:url(#clip-path-9);}.cls-33{opacity:0.19;}.cls-34{clip-path:url(#clip-path-10);}</style><clipPath id="clip-path"><rect class="cls-1" x="3.071" y="635.5" width="613" height="40" rx="12"/></clipPath><clipPath id="clip-path-2"><path class="cls-2" d="M594.946,635c0-157.539-127.71-285.25-285.25-285.25S24.446,477.461,24.446,635"/></clipPath><clipPath id="clip-path-3"><path class="cls-3" d="M126.072,181c0,69.588,82.491,126,184.25,126s184.25-56.412,184.25-126"/></clipPath><clipPath id="clip-path-4"><circle class="cls-4" cx="114.196" cy="492" r="21.5"/></clipPath><clipPath id="clip-path-5"><circle class="cls-4" cx="217.196" cy="492" r="21.5"/></clipPath><clipPath id="clip-path-6"><circle class="cls-4" cx="402.196" cy="492" r="21.5"/></clipPath><clipPath id="clip-path-7"><circle class="cls-4" cx="505.196" cy="492" r="21.5"/></clipPath><clipPath id="clip-path-8"><rect class="cls-5" x="450.071" y="552.5" width="77" height="65" rx="12"/></clipPath><clipPath id="clip-path-9"><rect class="cls-6" x="198.571" y="287" width="223" height="89" rx="12"/></clipPath><clipPath id="clip-path-10"><circle class="cls-7" cx="310.446" cy="15.5" r="15.5"/></clipPath></defs><title>station</title><g id="Layer_2" data-name="Layer 2"><g id="Layer_9" data-name="Layer 9"><rect class="cls-6" x="259.946" y="156" width="101" height="8" rx="4"/><rect class="cls-6" x="234.946" y="92.5" width="151" height="8" rx="4" transform="translate(213.946 406.946) rotate(-90)"/><rect class="cls-8" x="3.071" y="635.5" width="613" height="40" rx="12"/><rect class="cls-9" x="3.071" y="635.5" width="613" height="40" rx="12"/><g class="cls-10"><rect class="cls-11" x="3.071" y="655.5" width="613" height="20"/></g><rect class="cls-12" x="3.071" y="635.5" width="613" height="40" rx="12"/><path class="cls-13" d="M594.946,635c0-157.539-127.71-285.25-285.25-285.25S24.446,477.461,24.446,635"/><g class="cls-14"><rect class="cls-15" x="283.446" y="536.5" width="60" height="111" rx="12"/><rect class="cls-16" x="322.446" y="591.5" width="11" height="6" rx="3"/><rect class="cls-17" x="100.071" y="429.5" width="418" height="10" rx="5"/><polyline class="cls-18" points="143.294 403.295 616.071 675.5 616.071 375.5 616.071 349.5 136.071 349.5 143.294 403.295"/></g><path class="cls-19" d="M594.946,635c0-157.539-127.71-285.25-285.25-285.25S24.446,477.461,24.446,635"/><path class="cls-13" d="M126.072,181c0,69.588,82.491,126,184.25,126s184.25-56.412,184.25-126"/><g class="cls-20"><path class="cls-21" d="M117.071,184.5v31h266s102,4,119,24-9-57-9-57h-376Z"/><rect class="cls-9" x="100.571" y="417" width="426" height="12" rx="6"/></g><path class="cls-22" d="M126.072,181c0,69.588,82.491,126,184.25,126s184.25-56.412,184.25-126"/><circle class="cls-13" cx="114.196" cy="492" r="21.5"/><g class="cls-23"><ellipse class="cls-7" cx="117.196" cy="495.5" rx="19" ry="17.5"/></g><circle class="cls-24" cx="114.196" cy="492" r="21.5"/><circle class="cls-13" cx="217.196" cy="492" r="21.5"/><g class="cls-25"><ellipse class="cls-7" cx="220.196" cy="495.5" rx="19" ry="17.5"/></g><circle class="cls-24" cx="217.196" cy="492" r="21.5"/><circle class="cls-13" cx="402.196" cy="492" r="21.5"/><g class="cls-26"><ellipse class="cls-7" cx="405.196" cy="495.5" rx="19" ry="17.5"/></g><circle class="cls-24" cx="402.196" cy="492" r="21.5"/><circle class="cls-13" cx="505.196" cy="492" r="21.5"/><g class="cls-27"><ellipse class="cls-7" cx="508.196" cy="495.5" rx="19" ry="17.5"/></g><circle class="cls-24" cx="505.196" cy="492" r="21.5"/><rect class="cls-28" x="450.071" y="552.5" width="77" height="65" rx="12"/><g class="cls-29"><rect class="cls-30" x="458.571" y="559" width="77" height="57" rx="12"/></g><rect class="cls-31" x="450.071" y="552.5" width="77" height="65" rx="12"/><rect class="cls-6" x="70.571" y="607" width="44" height="11" rx="5.5"/><rect class="cls-6" x="70.571" y="590" width="44" height="11" rx="5.5"/><rect class="cls-6" x="70.571" y="573" width="44" height="11" rx="5.5"/><rect class="cls-6" x="198.571" y="287" width="223" height="89" rx="12"/><g class="cls-32"><polygon class="cls-33" points="152.571 275 483.571 390 457.571 287 152.571 275"/></g><rect class="cls-9" x="117.071" y="163.5" width="385" height="21" rx="10.5"/><rect class="cls-9" x="281.446" y="109" width="58" height="8" rx="4"/><rect class="cls-9" x="281.446" y="93" width="58" height="8" rx="4"/><rect class="cls-9" x="281.446" y="77" width="58" height="8" rx="4"/><rect class="cls-9" x="281.446" y="61" width="58" height="8" rx="4"/><rect class="cls-9" x="281.446" y="45" width="58" height="8" rx="4"/><circle class="cls-7" cx="310.446" cy="15.5" r="15.5"/><g class="cls-34"><circle class="cls-13" cx="314.571" cy="18" r="15"/></g></g></g></svg>